<?xml version="1.0" encoding="UTF-8"?><svg id="Layer_1" xmlns="http://www.w3.org/2000/svg" xmlns:xlink="http://www.w3.org/1999/xlink" viewBox="0 0 3000 665"><defs><style>.cls-1{fill:url(#radial-gradient);}.cls-1,.cls-2,.cls-3,.cls-4{fill-rule:evenodd;}.cls-2{fill:url(#linear-gradient);}.cls-3{fill:url(#linear-gradient-3);}.cls-4{fill:url(#linear-gradient-2);}</style><radialGradient id="radial-gradient" cx="174.97" cy="689.22" fx="174.97" fy="689.22" r="499.87" gradientUnits="userSpaceOnUse"><stop offset="0" stop-color="#00dcf4"/><stop offset=".16" stop-color="#00d3f4"/><stop offset=".43" stop-color="#00baf7"/><stop offset=".76" stop-color="#0093fb"/><stop offset="1" stop-color="#0073ff"/></radialGradient><linearGradient id="linear-gradient" x1="1887.71" y1="-254.84" x2="2453.91" y2="-254.84" gradientTransform="translate(2461.87 85.67) rotate(-180)" gradientUnits="userSpaceOnUse"><stop offset="0" stop-color="#0073ff"/><stop offset="1" stop-color="#00dcf4"/></linearGradient><linearGradient id="linear-gradient-2" x1="582.35" y1="506.05" x2="582.35" y2="0" gradientUnits="userSpaceOnUse"><stop offset=".1" stop-color="#f5cf00"/><stop offset="1" stop-color="#f09300"/></linearGradient><linearGradient id="linear-gradient-3" x1="-5.82" y1="332.44" x2="800.2" y2="332.44" gradientUnits="userSpaceOnUse"><stop offset="0" stop-color="#f7f3a4"/><stop offset=".5" stop-color="#ffa727"/><stop offset="1" stop-color="#ff6900"/></linearGradient></defs><g><path class="cls-1" d="m7.96,253.02c-31.61,157.87,34.67,355.58,131.75,411.88-119.15-109.93-13.1-521.78,191.57-292.35C211.65,207.13,74.72,54.14,7.96,253.02Z"/><path class="cls-2" d="m7.96,253.02c16.06-49.45,51.29-84.56,110.57-68.45,63.07,17.14,133.85,92.61,204.82,191,67.99,94.26,139.9,289.31,227.84,289.31,39.75-67.91,34.25-106.09-67.32-253.01-27.76-40.16-70.65-108.42-113.59-173.05-35.9-54.03-80.76-148.92-108.06-179.25C172.34-40.3,83.58,45.41,29.46,181.61c-8.73,21.98-14.59,47.5-21.5,71.41Z"/><path class="cls-4" d="m740.03,411.88C771.64,254.01,705.36,56.3,608.28,0c119.15,109.93,13.1,521.78-191.57,292.35,119.64,165.41,256.56,318.41,323.32,119.53Z"/><path class="cls-3" d="m29.46,181.61C71.77,70.36,146.71-11.55,211.08,1.34c74.22,14.87,145.57,193.73,213.56,287.99,119.42,165.57,248.63,321.44,315.39,122.55-41.91,172.82-124.74,253-188.83,253-53.76,0-92.01-66.51-118.87-124.64-46.05-99.67-86.74-230.17-128.87-309.28-52.84-99.23-127.28-157.43-179.77-144.98-29.27,6.95-65.2,30.43-94.23,95.62Z"/></g><g><polygon points="1110.49 370.32 1000.62 222.1 959.77 222.1 959.77 443.75 1004.42 443.75 1004.42 298 1113.66 443.75 1155.13 443.75 1155.13 222.1 1110.49 222.1 1110.49 370.32"/><path d="m1274.19,222.1l-86.76,221.65h45.28l18.05-47.81h86.12l18.05,47.81h46.86l-86.44-221.65h-41.16Zm-9.18,136.47l29.13-82.01,28.81,82.01h-57.94Z"/><path d="m1573.43,333.4c-13.61-10.66-32.03-18.42-55.25-23.27-12.66-2.53-22.74-6.02-30.24-10.45-7.49-4.43-11.24-10.55-11.24-18.36,0-7.39,3.22-13.24,9.66-17.57,6.44-4.32,14.93-6.49,25.49-6.49,20.26,0,36.94,9.29,50.03,27.86l29.45-28.81c-7.6-12.24-17.89-21.69-30.87-28.34-12.98-6.65-29.29-9.97-48.92-9.97-14.78,0-28.23,2.74-40.37,8.23-12.14,5.49-21.9,13.14-29.29,22.95-7.39,9.82-11.08,21.16-11.08,34.04,0,18.58,5.8,33.46,17.41,44.65,11.6,11.19,29.34,19.31,53.19,24.38,13.72,2.74,24.96,6.6,33.72,11.56,8.76,4.96,13.14,11.77,13.14,20.42,0,7.18-3.44,12.88-10.29,17.1-6.86,4.23-15.25,6.33-25.17,6.33-12.24,0-23.43-2.58-33.56-7.76-10.13-5.17-20.37-14.93-30.72-29.29l-28.81,32.61c10.34,14.14,22.85,24.96,37.52,32.45,14.67,7.49,32.24,11.24,52.72,11.24,16.67,0,31.29-2.8,43.85-8.39,12.56-5.59,22.37-13.66,29.45-24.22,7.07-10.55,10.6-23.22,10.6-37.99,0-17.94-6.81-32.24-20.42-42.9Z"/><polygon points="1778.44 312.34 1683.45 312.34 1683.45 222.1 1637.85 222.1 1637.85 443.75 1683.45 443.75 1683.45 354.14 1778.44 354.14 1778.44 443.75 1824.04 443.75 1824.04 222.1 1778.44 222.1 1778.44 312.34"/><path d="m1943.09,222.1l-86.76,221.65h45.28l18.05-47.81h86.12l18.05,47.81h46.86l-86.44-221.65h-41.16Zm-9.18,136.47l29.13-82.01,28.81,82.01h-57.94Z"/><polygon points="2180.24 263.58 2244.52 263.58 2244.52 443.75 2290.11 443.75 2290.11 263.58 2356.29 263.58 2356.29 222.1 2180.24 222.1 2180.24 263.58"/><polygon points="2440.52 350.34 2528.54 350.34 2528.54 311.08 2440.52 311.08 2440.52 262.63 2544.06 262.63 2544.06 222.1 2395.87 222.1 2395.87 443.75 2545.95 443.75 2545.95 403.22 2440.52 403.22 2440.52 350.34"/><path d="m2660.73,270.87c10.02-5.91,21.27-8.87,33.72-8.87,10.14,0,19.52,2.22,28.18,6.65,8.65,4.44,16.78,10.66,24.38,18.68l28.81-31.98c-8.86-11.19-20.64-20.11-35.3-26.76-14.67-6.65-29.92-9.98-45.76-9.98s-30.98,2.85-44.8,8.55c-13.83,5.7-25.86,13.73-36.1,24.06-10.24,10.35-18.26,22.44-24.07,36.26-5.81,13.83-8.7,28.77-8.7,44.81,0,22.59,4.75,42.48,14.25,59.68,9.5,17.21,22.64,30.67,39.42,40.37,16.78,9.71,35.94,14.56,57.47,14.56,10.56,0,21.06-1.32,31.51-3.96,10.45-2.64,20-6.28,28.66-10.93,8.65-4.64,15.51-9.82,20.58-15.52l-22.16-35.78c-6.54,6.76-14.36,12.24-23.43,16.47-9.08,4.23-18.79,6.33-29.13,6.33-13.93,0-26.23-2.9-36.89-8.71-10.66-5.8-18.9-14.03-24.7-24.7-5.81-10.66-8.71-23.16-8.71-37.52s2.95-26.22,8.86-36.89c5.9-10.66,13.88-18.94,23.9-24.85Z"/><polygon points="2954.4 222.1 2954.4 312.34 2859.42 312.34 2859.42 222.1 2813.82 222.1 2813.82 443.75 2859.42 443.75 2859.42 354.14 2954.4 354.14 2954.4 443.75 3000 443.75 3000 222.1 2954.4 222.1"/></g></svg>